File Name

The Edge 1997 BRRip H264.mp4

File Size
Format : MPEG-4
Format profile : Base Media
Codec ID : isom
File size : 2.20 GiB
Duration : 1h 57mn
Overall bit rate : 2 678 Kbps

Video
ID : 1
Format : AVC
Format/Info : Advanced Video Codec
Format profile : High@L4.1
Format settings, CABAC : Yes
Format settings, ReFrames : 3 frames
Codec ID : avc1
Codec ID/Info : Advanced Video Coding
Duration : 1h 57mn
Bit rate mode : Variable
Bit rate : 2 099 Kbps
Maximum bit rate : 8 088 Kbps
Width : 1 280 pixels
Height : 544 pixels
Display aspect ratio : 2.35:1
Frame rate mode : Constant
Frame rate : 23.976 fps
Resolution : 24 bits
Colorimetry : 4:2:0
Scan type : Progressive
Bits/(Pixel*Frame) : 0.126
Stream size : 1.72 GiB (78%)

Audio #1
ID : 2
Format : AAC
Format/Info : Advanced Audio Codec
Format version : Version 4
Format profile : LC
Format settings, SBR : No
Codec ID : 40
Duration : 1h 57mn
Bit rate mode : Variable
Bit rate : 128 Kbps
Maximum bit rate : 135 Kbps
Channel(s) : 2 channels
Channel positions : L R
Sampling rate : 48.0 KHz
Resolution : 16 bits
Stream size : 108 MiB (5%)

Audio #2
ID : 3
Format : AAC
Format/Info : Advanced Audio Codec
Format version : Version 4
Format profile : LC
Format settings, SBR : No
Codec ID : 40
Duration : 1h 57mn
Bit rate mode : Variable
Bit rate : 448 Kbps
Maximum bit rate : 465 Kbps
Channel(s) : 6 channels
Channel positions : Front: L C R, Rear: L R, LFE
Sampling rate : 48.0 KHz
Resolution : 16 bits
Stream size : 376 MiB (17%)

English SRT : ----

Language : English

 
http://www.imdb.com/title/tt0119051/

Release Date: 26 September 1997 (USA) 

Genre: Drama | Action | Adventure | Thriller 

Plot: A billionaire and two other men are stranded, unequipped, by a plane crash in a dangerous wilderness. How many will survive to be rescued? 

Cast: 
Anthony Hopkins ... Charles Morse
Alec Baldwin ... Robert Green
Elle Macpherson ... Mickey Morse
Harold Perrineau ... Stephen
Bart the Bear ... The Bear
L.Q. Jones ... Styles
Kathleen Wilhoite ... Ginny
David Lindstedt ... James
Mark Kiely ... Mechanic
Eli Gabay ... Jet Pilot
Larry Musser ... Amphibian Pilot
Brian Arnold ... Reporter
Bob Boyd ... Reporter
Kelsa Kinsly ... Reporter
Gordon Tootoosis ... Jack Hawk